<svg version="1.2" xmlns="http://www.w3.org/2000/svg" xmlns:xlink="http://www.w3.org/1999/xlink" overflow="visible" preserveAspectRatio="none" viewBox="0 0 26 26" width="24" height="24"><g><defs> </defs> <rect x="0.002" display="none" fill="#FFA400" width="26" height="26" style="fill: rgb(255, 255, 255);" vector-effect="non-scaling-stroke"/> <rect id="_x3C_Slice_x3E__126_" x="0.002" display="none" fill="none" width="26" height="26" style="fill: rgb(255, 255, 255);" vector-effect="non-scaling-stroke"/> <path fill-rule="evenodd" clip-rule="evenodd" d="M15.811,19.031c-0.415-0.86-0.955-1.483-1.885-1.1l-1.832,0.682 c-1.466,0.682-2.198,0-2.932-1.023l-3.298-7.505C5.451,9.225,5.667,8.42,6.598,8.038l2.564-1.023 c0.931-0.383,0.78-1.187,0.367-2.047L7.33,0.875c-0.414-0.86-1.268-1.065-2.198-0.683C3.271,0.959,1.733,2.16,0.734,3.944 c-1.218,2.176-0.607,5.207-0.366,6.481c0.242,1.274,1.095,3.506,2.199,5.799c1.104,2.293,2.068,4.098,2.931,5.117 s2.932,3.814,5.496,4.435c2.103,0.508,4.368,0.082,6.229-0.683c0.931-0.382,0.933-1.19,0.519-2.05L15.811,19.031z M21.002,6h-3l4,4 h-9v2h9l-4,4h3l5-5L21.002,6z" style="fill: rgb(255, 255, 255);" vector-effect="non-scaling-stroke"/> </g></svg>